<?xml version="1.0" encoding="utf-8"?>
<!-- Generator: Adobe Illustrator 18.1.1, SVG Export Plug-In . SVG Version: 6.00 Build 0)  -->
<svg version="1.1" id="Layer_1" xmlns="http://www.w3.org/2000/svg" xmlns:xlink="http://www.w3.org/1999/xlink" x="0px" y="0px"
	 viewBox="0 0 195.8 195.8" enable-background="new 0 0 195.8 195.8" xml:space="preserve">
<circle fill="#B87A2A" cx="97.9" cy="97.9" r="97.9"/>
<g>
	<path fill="#FFFFFF" d="M124.9,57.7c-1.4,1.4-3.6,1.4-5,0l-22-22l-22,22c-1.4,1.4-3.6,1.4-4.9,0c-1.4-1.4-1.4-3.6,0-5l22-22l5-4.9
		l5,4.9l22,22C126.2,54.1,126.2,56.3,124.9,57.7z"/>
</g>
<g>
	<path fill="#FFFFFF" stroke="#FFFFFF" stroke-width="0.5" stroke-miterlimit="10" d="M72.5,95h-4.6V74.9h3.5c2.5,0,4.4,0.5,5.7,1.4
		c1.3,0.9,1.9,2.2,1.9,3.9c0,1.9-0.8,3.3-2.4,4.2c2.3,0.9,3.5,2.5,3.5,5c0,1.7-0.6,3.1-1.9,4.1C77,94.5,75.1,95,72.5,95z M72.5,94.1
		c0.9,0,1.7-0.1,2.5-0.2c0.7-0.1,1.5-0.4,2.1-0.7c0.7-0.3,1.2-0.8,1.6-1.5c0.4-0.7,0.6-1.4,0.6-2.3c0-2.1-1-3.4-3-4.2l-1.7-0.6
		l1.6-0.9c1.3-0.7,2-1.9,2-3.5c0-3-2.3-4.5-6.8-4.5h-2.6v18.4H72.5z"/>
	<path fill="#FFFFFF" stroke="#FFFFFF" stroke-width="0.5" stroke-miterlimit="10" d="M85.1,94.1h10.6l-6.1-16.8L83.1,95h-0.9
		l7.3-20.2L96.9,95H85.1V94.1z"/>
	<path fill="#FFFFFF" stroke="#FFFFFF" stroke-width="0.5" stroke-miterlimit="10" d="M112.7,91.3c-0.5,1.3-1.2,2.2-2.2,2.9
		c-0.9,0.7-2.3,1-4.2,1c-2.4,0-4.1-0.7-5.1-2.2c-1.1-1.4-1.6-3.7-1.6-6.8v-2.8c0-3.1,0.5-5.3,1.6-6.8c1.1-1.4,2.8-2.2,5.1-2.2
		c1.9,0,3.3,0.3,4.2,1s1.7,1.7,2.2,2.9l-0.8,0.4c-0.4-1.1-1.1-2-1.9-2.6s-2.1-0.9-3.8-0.9c-0.9,0-1.7,0.1-2.4,0.4s-1.3,0.6-1.8,1.2
		c-0.5,0.6-0.9,1.4-1.2,2.5c-0.3,1.1-0.4,2.4-0.4,4v2.8c0,1.6,0.1,2.9,0.4,4c0.3,1.1,0.7,1.9,1.2,2.5c0.5,0.6,1.1,1,1.8,1.2
		s1.5,0.4,2.4,0.4c1.7,0,3-0.3,3.8-0.9s1.4-1.5,1.9-2.6L112.7,91.3z"/>
	<path fill="#FFFFFF" stroke="#FFFFFF" stroke-width="0.5" stroke-miterlimit="10" d="M118,74.9V95h-0.9V74.9H118z M129.8,74.9
		l-9.7,9.6L130.7,95h-1.2l-10.6-10.5l9.7-9.6H129.8z"/>
	<path fill="#FFFFFF" stroke="#FFFFFF" stroke-width="0.5" stroke-miterlimit="10" d="M96.2,109.4v0.9h-6.8v19.3h-0.9v-19.3h-6.8
		v-0.9H96.2z"/>
	<path fill="#FFFFFF" stroke="#FFFFFF" stroke-width="0.5" stroke-miterlimit="10" d="M110.6,127.6c-1.1,1.4-2.8,2.2-5.1,2.2
		c-2.4,0-4.1-0.7-5.1-2.2s-1.6-3.7-1.6-6.8V118c0-3.1,0.5-5.3,1.6-6.8c1.1-1.4,2.8-2.2,5.1-2.2c2.4,0,4.1,0.7,5.1,2.2
		c1.1,1.4,1.6,3.7,1.6,6.8v2.8C112.2,123.9,111.7,126.2,110.6,127.6z M107.9,110.3c-0.7-0.2-1.5-0.4-2.4-0.4s-1.7,0.1-2.4,0.4
		c-0.7,0.2-1.3,0.6-1.8,1.2c-0.5,0.6-0.9,1.4-1.2,2.5c-0.3,1.1-0.4,2.4-0.4,4v2.8c0,1.6,0.1,2.9,0.4,4c0.3,1.1,0.7,1.9,1.2,2.5
		c0.5,0.6,1.1,1,1.8,1.2c0.7,0.2,1.5,0.4,2.4,0.4s1.7-0.1,2.4-0.4c0.7-0.2,1.3-0.6,1.8-1.2c0.5-0.6,0.9-1.4,1.2-2.5s0.4-2.4,0.4-4
		V118c0-1.6-0.1-2.9-0.4-4s-0.7-1.9-1.2-2.5C109.2,111,108.6,110.6,107.9,110.3z"/>
	<path fill="#FFFFFF" stroke="#FFFFFF" stroke-width="0.5" stroke-miterlimit="10" d="M88.6,143.9v0.9h-6.8V164H81v-19.3h-6.8v-0.9
		H88.6z"/>
	<path fill="#FFFFFF" stroke="#FFFFFF" stroke-width="0.5" stroke-miterlimit="10" d="M103.1,162.1c-1.1,1.4-2.8,2.2-5.1,2.2
		c-2.4,0-4.1-0.7-5.1-2.2c-1.1-1.4-1.6-3.7-1.6-6.8v-2.8c0-3.1,0.5-5.3,1.6-6.8c1.1-1.4,2.8-2.2,5.1-2.2c2.4,0,4.1,0.7,5.1,2.2
		c1.1,1.4,1.6,3.7,1.6,6.8v2.8C104.7,158.4,104.1,160.7,103.1,162.1z M100.4,144.8c-0.7-0.2-1.5-0.4-2.4-0.4s-1.7,0.1-2.4,0.4
		c-0.7,0.2-1.3,0.6-1.8,1.2c-0.5,0.6-0.9,1.4-1.2,2.5c-0.3,1.1-0.4,2.4-0.4,4v2.8c0,1.6,0.1,2.9,0.4,4c0.3,1.1,0.7,1.9,1.2,2.5
		c0.5,0.6,1.1,1,1.8,1.2c0.7,0.2,1.5,0.4,2.4,0.4s1.7-0.1,2.4-0.4c0.7-0.2,1.3-0.6,1.8-1.2s0.9-1.4,1.2-2.5c0.3-1.1,0.4-2.4,0.4-4
		v-2.8c0-1.6-0.1-2.9-0.4-4c-0.3-1.1-0.7-1.9-1.2-2.5S101.1,145.1,100.4,144.8z"/>
	<path fill="#FFFFFF" stroke="#FFFFFF" stroke-width="0.5" stroke-miterlimit="10" d="M116.9,154.4l-0.4-0.7l1.6-0.9
		c1.3-0.7,2-1.9,2-3.5c0-3-2.3-4.5-6.8-4.5h-2.6V164h-0.9v-20.1h3.5c2.5,0,4.4,0.5,5.7,1.4c1.3,0.9,1.9,2.2,1.9,3.9
		c0,1.9-0.8,3.3-2.4,4.2L116.9,154.4z"/>
</g>
<circle fill="none" stroke="#FFFFFF" stroke-width="2" stroke-miterlimit="10" cx="97.9" cy="97.9" r="87.9"/>
</svg>
