<?xml version="1.0" encoding="utf-8"?>
<!-- Generator: Adobe Illustrator 18.1.1, SVG Export Plug-In . SVG Version: 6.00 Build 0)  -->
<svg version="1.1" id="Layer_1" xmlns="http://www.w3.org/2000/svg" xmlns:xlink="http://www.w3.org/1999/xlink" x="0px" y="0px"
	 viewBox="0 0 161.3 96.9" style="enable-background:new 0 0 161.3 96.9;" xml:space="preserve">
<style type="text/css">
	.st0{fill:#B97922;stroke:#FFFFFF;stroke-miterlimit:10;}
</style>
<path class="st0" d="M146.8,28.6H14.5c-7.8,0-14-6.3-14-14v0c0-7.8,6.3-14,14-14h132.3c7.8,0,14,6.3,14,14v0
	C160.8,22.3,154.6,28.6,146.8,28.6z"/>
<path class="st0" d="M146.8,62.5H14.5c-7.8,0-14-6.3-14-14v0c0-7.8,6.3-14,14-14h132.3c7.8,0,14,6.3,14,14v0
	C160.8,56.2,154.6,62.5,146.8,62.5z"/>
<path class="st0" d="M146.8,96.4H14.5c-7.8,0-14-6.3-14-14v0c0-7.8,6.3-14,14-14h132.3c7.8,0,14,6.3,14,14v0
	C160.8,90.2,154.6,96.4,146.8,96.4z"/>
<g>
</g>
<g>
</g>
<g>
</g>
<g>
</g>
<g>
</g>
<g>
</g>
</svg>
