<?xml version="1.0" encoding="utf-8"?>
<!-- Generator: Adobe Illustrator 18.1.1, SVG Export Plug-In . SVG Version: 6.00 Build 0)  -->
<svg version="1.1" id="Layer_1" xmlns="http://www.w3.org/2000/svg" xmlns:xlink="http://www.w3.org/1999/xlink" x="0px" y="0px"
	 viewBox="69.1 69.1 189 189" enable-background="new 69.1 69.1 189 189" xml:space="preserve">
<path fill="#B97922" d="M219.8,249.9L77.2,107.4c-8.4-8.4-8.3-21.9,0-30.2l0,0c8.4-8.4,21.9-8.3,30.2,0l142.6,142.6
	c8.4,8.4,8.3,21.9,0,30.2l0,0C241.6,258.2,228.2,258.3,219.8,249.9z"/>
<path fill="#B97922" d="M249.9,107.4L107.4,249.9c-8.4,8.4-21.9,8.3-30.2,0l0,0c-8.4-8.4-8.3-21.9,0-30.2L219.8,77.2
	c8.4-8.4,21.9-8.3,30.2,0l0,0C258.2,85.5,258.3,99,249.9,107.4z"/>
</svg>
